<?xml version="1.0" encoding="UTF-8"?>
<svg version="1.1" xmlns="http://www.w3.org/2000/svg" width="50" height="50">
<path d="M0 0 C2.640625 -0.49609375 2.640625 -0.49609375 6 0 C8.28192167 2.37817557 9.94133474 5.19108398 11.75 7.9375 C15.65023003 13.45882358 15.65023003 13.45882358 21.32373047 16.82373047 C25.36402432 17.46776537 29.25186404 17.38931861 33.32421875 17.1484375 C34.53722656 17.09945313 35.75023437 17.05046875 37 17 C39 19 39 19 39.25 22 C39 25 39 25 37 27 C34.97647746 26.99581917 32.95248438 26.98392262 30.92993164 26.92114258 C22.65036466 26.67207581 22.65036466 26.67207581 15.69140625 30.58984375 C13.12770724 33.50568927 11.0443487 36.70224513 9 40 C7.4453125 42.37109375 7.4453125 42.37109375 6 44 C2.8125 44.25 2.8125 44.25 0 44 C0.53753096 37.81839396 2.54582388 32.673142 5 27 C2.03 27 -0.94 27 -4 27 C-4.226875 27.804375 -4.45375 28.60875 -4.6875 29.4375 C-5.120625 30.283125 -5.55375 31.12875 -6 32 C-8.475 32.495 -8.475 32.495 -11 33 C-11 25.74 -11 18.48 -11 11 C-8.525 11.495 -8.525 11.495 -6 12 C-4.6875 14.5625 -4.6875 14.5625 -4 17 C-1.03 17 1.94 17 5 17 C4.6390625 16.19175781 4.278125 15.38351563 3.90625 14.55078125 C3.4421875 13.48214844 2.978125 12.41351563 2.5 11.3125 C2.0359375 10.25675781 1.571875 9.20101563 1.09375 8.11328125 C0.05049199 5.14372184 -0.23065301 3.10804937 0 0 Z M4 4 C4.45636536 5.396478 4.91519488 6.7921508 5.375 8.1875 C5.63023438 8.96480469 5.88546875 9.74210938 6.1484375 10.54296875 C7.01991102 13.05744968 8.0116485 15.52912126 9 18 C1.08 18.495 1.08 18.495 -7 19 C-7 20.98 -7 22.96 -7 25 C-1.72 25.33 3.56 25.66 9 26 C7.66536458 29.05989583 6.33072917 32.11979167 4.99609375 35.1796875 C4.66738281 36.11039063 4.33867187 37.04109375 4 38 C4.33 38.66 4.66 39.32 5 40 C5.59683594 39.00097656 6.19367187 38.00195312 6.80859375 36.97265625 C13.38517364 26.89029322 13.38517364 26.89029322 18.14111328 25.27099609 C21.91586942 24.6837035 25.56937025 24.74061294 29.375 24.921875 C33.09797192 25.34815716 33.09797192 25.34815716 36 23 C35.505 21.515 35.505 21.515 35 20 C32.84573822 18.71821209 32.84573822 18.71821209 29.47265625 19.17578125 C18.17843893 19.65970852 18.17843893 19.65970852 14.14013672 16.58300781 C10.52286099 12.77701382 7.78831107 8.42815795 5 4 C4.67 4 4.34 4 4 4 Z " fill="#4584B4" transform="translate(11,3)"/>
</svg>
